<?xml version="1.0" encoding="utf-8"?>
<svg viewBox="0 0 40 40" width="40px" height="40px" preserveAspectRatio="none" xmlns="http://www.w3.org/2000/svg" xmlns:bx="https://boxy-svg.com">
  <defs>
    <filter id="drop-shadow-filter-0" x="-500%" y="-500%" width="1000%" height="1000%" bx:preset="drop-shadow 1 1 1 0 0.5 rgba(169,112,198,0.3)">
      <feGaussianBlur in="SourceAlpha" stdDeviation="0"/>
      <feOffset dx="1" dy="1"/>
      <feComponentTransfer result="offsetblur">
        <feFuncA id="spread-ctrl" type="linear" slope="1"/>
      </feComponentTransfer>
      <feFlood flood-color="rgba(169,112,198,0.3)"/>
      <feComposite in2="offsetblur" operator="in"/>
      <feMerge>
        <feMergeNode/>
        <feMergeNode in="SourceGraphic"/>
      </feMerge>
    </filter>
  </defs>
  <path d="M 6.834 26.858 L 2.134 26.858 L 2.134 25.728 L 3.594 25.478 L 3.594 15.168 L 2.134 14.918 L 2.134 13.778 L 6.834 13.778 L 6.834 14.918 L 5.364 15.168 L 5.364 19.688 L 11.624 19.688 L 11.624 15.168 L 10.154 14.918 L 10.154 13.778 L 11.624 13.778 L 13.394 13.778 L 14.854 13.778 L 14.854 14.918 L 13.394 15.168 L 13.394 25.478 L 14.854 25.728 L 14.854 26.858 L 10.154 26.858 L 10.154 25.728 L 11.624 25.478 L 11.624 21.078 L 5.364 21.078 L 5.364 25.478 L 6.834 25.728 L 6.834 26.858 ZM 25.729 26.858 L 16.309 26.858 L 16.309 25.728 L 17.769 25.478 L 17.769 15.168 L 16.309 14.918 L 16.309 13.778 L 17.769 13.778 L 19.539 13.778 L 21.009 13.778 L 21.009 14.918 L 19.539 15.168 L 19.539 25.498 L 24.169 25.498 L 24.379 23.438 L 25.729 23.438 L 25.729 26.858 ZM 36.598 26.858 L 27.178 26.858 L 27.178 25.728 L 28.638 25.478 L 28.638 15.168 L 27.178 14.918 L 27.178 13.778 L 28.638 13.778 L 30.408 13.778 L 31.878 13.778 L 31.878 14.918 L 30.408 15.168 L 30.408 25.498 L 35.038 25.498 L 35.248 23.438 L 36.598 23.438 L 36.598 26.858 Z" style="white-space: pre; filter: url(#drop-shadow-filter-0); fill: rgb(251, 0, 0); stroke: rgb(6, 0, 195);" transform="matrix(1, 0, 0, 1, 0, 0)"/>
</svg>